<svg width="427" height="147" viewBox="0 0 427 147" fill="none" xmlns="http://www.w3.org/2000/svg">
<g clip-path="url(#clip0)">
<path fill-rule="evenodd" clip-rule="evenodd" d="M0 30.1901H16.608V49.0996L11.5887 65.8045L16.608 83.325V121.767H0V30.1901Z" fill="white"/>
<path fill-rule="evenodd" clip-rule="evenodd" d="M34.624 97.4931C54.2196 97.4931 70.1052 81.949 70.1052 62.7744C70.1052 43.5998 54.2196 28.0557 34.624 28.0557C22.205 28.0557 12.2827 36.2689 5.9432 45.7231C3.86078 48.8288 5.39508 51.6443 7.10703 54.7861C8.40653 57.1711 9.8086 59.744 9.8086 62.7744C9.62278 65.8831 8.90159 68.9364 7.6768 71.7998C6.0907 76.1918 4.62869 80.2398 7.3636 83.7612C13.8438 92.1055 23.0876 97.4931 34.624 97.4931ZM34.721 81.4881C39.6291 81.4032 44.3076 79.3943 47.7486 75.894C51.1896 72.3938 53.1178 67.6822 53.1178 62.7744C53.1178 57.8665 51.1896 53.155 47.7486 49.6547C44.3076 46.1544 39.6291 44.1455 34.721 44.0606C29.8128 44.1455 25.1343 46.1544 21.6933 49.6547C18.2523 53.155 16.3241 57.8665 16.3241 62.7744C16.3241 67.6822 18.2523 72.3938 21.6933 75.894C25.1343 79.3943 29.8128 81.4032 34.721 81.4881V81.4881Z" fill="white"/>
<path fill-rule="evenodd" clip-rule="evenodd" d="M274.348 0V95.5016H291.228V0H274.348Z" fill="white"/>
<path fill-rule="evenodd" clip-rule="evenodd" d="M99.9817 52.9839C97.7136 51.8501 96.5795 50.4111 96.5795 48.6667C96.5605 47.8876 96.7433 47.1168 97.1102 46.4291C97.477 45.7414 98.0154 45.1603 98.6732 44.742C100.326 43.7365 102.236 43.2362 104.169 43.3029C106.39 43.1987 108.588 43.784 110.462 44.9786C112.336 46.1733 113.795 47.9186 114.638 49.975L129.031 42.1255C126.631 37.8063 123.044 34.265 118.694 31.9211C114.253 29.4589 109.247 28.1964 104.169 28.2581C97.7684 28.044 91.4875 30.0293 86.3731 33.8832C84.0639 35.6604 82.2164 37.9671 80.9866 40.6083C79.7567 43.2496 79.1806 46.148 79.307 49.0588C79.1734 52.9195 80.3749 56.7082 82.709 59.7867C84.9823 62.5183 87.9075 64.633 91.2145 65.9355C94.4618 67.2215 97.7827 68.3136 101.16 69.2061C104.046 69.9226 106.852 70.9308 109.534 72.2151C111.89 73.2617 113.067 74.657 113.067 76.4012C113.067 80.1516 110.058 82.0267 104.038 82.0266C97.4081 82.0266 93.1334 79.1921 91.2145 73.5231L76.5591 81.7653C81.4444 92.1438 90.6042 97.3332 104.038 97.3333C111.54 97.3333 117.778 95.5454 122.75 91.9695C127.809 88.3064 130.339 83.117 130.34 76.4015C130.484 72.3977 129.235 68.4677 126.807 65.281C124.681 62.4225 121.772 60.2413 118.433 59.0014C115.197 57.7184 111.874 56.6691 108.488 55.8616C105.581 55.129 102.736 54.1668 99.9817 52.9839V52.9839Z" fill="white"/>
<path fill-rule="evenodd" clip-rule="evenodd" d="M199.227 30.09H181.169L166.644 74.0469L149.634 30.09H131.184L158.009 93.4088C156.439 97.8569 154.301 101.084 151.597 103.089C148.98 105.095 145.403 106.054 140.867 105.968V121.666C149.242 122.102 156.22 120.184 161.803 115.91C167.474 111.724 172.011 104.921 175.412 95.502L199.227 30.09Z" fill="white"/>
<path fill-rule="evenodd" clip-rule="evenodd" d="M235.847 97.3333C231.281 97.4405 226.741 96.6204 222.501 94.9227C218.262 93.225 214.411 90.6849 211.181 87.4562C207.952 84.2275 205.411 80.3772 203.713 76.1385C202.015 71.8997 201.195 67.3606 201.302 62.7958C201.332 56.7298 202.951 50.7776 205.998 45.5323C209.046 40.287 213.415 35.9318 218.671 32.9009C223.926 29.8699 229.885 28.2691 235.952 28.2579C242.019 28.2466 247.984 29.8254 253.25 32.8369C258.314 35.7132 262.447 39.9811 265.158 45.1345L250.633 53.638C249.328 50.9373 247.227 48.7005 244.614 47.2277C241.222 45.2983 237.295 44.523 233.425 45.0185C229.554 45.514 225.95 47.2535 223.154 49.975C221.495 51.6605 220.198 53.6672 219.343 55.8719C218.488 58.0766 218.093 60.4328 218.182 62.7958C218.109 65.1569 218.512 67.5085 219.366 69.711C220.22 71.9135 221.509 73.9219 223.154 75.6169C224.798 77.2585 226.761 78.5465 228.921 79.4014C231.081 80.2564 233.394 80.6602 235.716 80.5882C238.869 80.6505 241.982 79.8836 244.745 78.3642C247.359 76.8914 249.459 74.6545 250.765 71.9538L265.42 80.3266C262.538 85.4754 258.338 89.7649 253.251 92.7548C247.968 95.8204 241.955 97.4023 235.847 97.3333Z" fill="white"/>
<path fill-rule="evenodd" clip-rule="evenodd" d="M339.391 82.0268C329.358 82.0268 323.208 77.9277 320.94 69.7294H370.272C371.723 38.2007 350.425 28.2582 337.82 28.2582C327.7 28.2582 319.413 31.5724 312.958 38.2007C306.502 44.742 303.275 52.9403 303.275 62.7956C303.275 72.7382 306.547 80.9801 313.089 87.5213C319.632 94.0626 328.312 97.3332 339.129 97.3332H398.283L394.257 82.0266L339.391 82.0268ZM320.663 56.693C324.268 39.0058 350.971 38.7388 353.908 56.693H320.663Z" fill="white"/>
<path fill-rule="evenodd" clip-rule="evenodd" d="M403.943 81.9164H427V97.3135H407.875L403.943 81.9164Z" fill="#F1C84B"/>
<path d="M221.274 146.387L213.877 133.746H206.083V146.387H201.695V113.37H214.905C216.256 113.349 217.597 113.605 218.846 114.12C220.095 114.634 221.226 115.398 222.171 116.365C223.892 118.053 224.95 120.302 225.154 122.704C225.357 125.106 224.692 127.501 223.279 129.454C222.059 131.174 220.337 132.475 218.349 133.18L226.133 146.387L221.274 146.387ZM206.083 117.473V129.784H214.905C215.69 129.794 216.468 129.637 217.187 129.324C217.907 129.011 218.552 128.549 219.079 127.968C219.639 127.39 220.08 126.707 220.376 125.958C220.671 125.21 220.816 124.41 220.802 123.605C220.817 122.804 220.673 122.007 220.377 121.262C220.081 120.517 219.64 119.838 219.079 119.266C218.548 118.691 217.902 118.234 217.183 117.925C216.464 117.616 215.687 117.462 214.905 117.473H206.083Z" fill="white"/>
<path d="M234.907 142.236H250.24V146.387H230.52V113.37H250.005V117.52H234.907V127.661H248.825V131.765H234.907V142.236Z" fill="white"/>
<path d="M266.186 147C263.394 147.082 260.642 146.326 258.284 144.83C256.127 143.422 254.506 141.329 253.685 138.887L257.458 136.717C258.748 140.711 261.689 142.708 266.28 142.708C268.117 142.83 269.942 142.341 271.47 141.317C272.045 140.889 272.508 140.329 272.82 139.684C273.132 139.039 273.283 138.329 273.263 137.613C273.302 136.918 273.157 136.224 272.842 135.603C272.528 134.982 272.054 134.455 271.47 134.075C269.587 132.992 267.574 132.152 265.479 131.574C264.108 131.103 263.058 130.742 262.328 130.491C261.395 130.152 260.485 129.75 259.605 129.289C258.726 128.916 257.932 128.372 257.267 127.687C256.603 127.003 256.082 126.192 255.736 125.303C255.297 124.292 255.08 123.198 255.098 122.096C255.045 120.804 255.289 119.517 255.813 118.336C256.337 117.154 257.126 116.108 258.119 115.28C260.187 113.578 262.801 112.682 265.479 112.757C267.9 112.701 270.281 113.393 272.295 114.738C274.212 116.039 275.725 117.853 276.659 119.973L272.979 122.096C272.448 120.549 271.43 119.217 270.078 118.299C268.725 117.38 267.112 116.925 265.479 117.002C263.922 116.927 262.388 117.394 261.137 118.322C260.599 118.746 260.169 119.292 259.882 119.915C259.595 120.537 259.459 121.219 259.487 121.904C259.451 122.54 259.574 123.175 259.846 123.751C260.118 124.328 260.529 124.827 261.043 125.204C262.713 126.245 264.526 127.039 266.424 127.56C267.317 127.877 267.956 128.103 268.343 128.24C268.728 128.377 269.325 128.588 270.128 128.872C270.731 129.076 271.322 129.313 271.899 129.582C272.275 129.771 272.786 130.039 273.431 130.385C273.954 130.647 274.438 130.981 274.868 131.378C275.182 131.693 275.552 132.079 275.977 132.536C276.366 132.94 276.677 133.412 276.895 133.929C277.102 134.459 277.268 135.004 277.391 135.559C277.535 136.202 277.606 136.86 277.603 137.519C277.652 138.837 277.392 140.149 276.843 141.349C276.295 142.549 275.472 143.604 274.442 144.429C272.077 146.227 269.154 147.138 266.186 147Z" fill="white"/>
<path d="M286.945 142.236H302.278V146.387H282.558V113.37H302.042V117.52H286.945V127.661H300.863V131.765H286.945V142.236Z" fill="white"/>
<path d="M329.83 146.387L327.135 138.982H312.286L309.591 146.387H304.92L317.232 113.37H322.186L334.5 146.387H329.83ZM313.778 134.878H325.641L319.71 118.578L313.778 134.878Z" fill="white"/>
<path d="M357.994 146.387L350.597 133.746H342.802V146.387H338.415V113.37H351.625C352.976 113.349 354.317 113.605 355.566 114.12C356.815 114.634 357.947 115.398 358.891 116.365C360.612 118.053 361.67 120.302 361.874 122.704C362.077 125.106 361.412 127.501 359.999 129.454C358.779 131.174 357.057 132.475 355.069 133.18L362.853 146.387L357.994 146.387ZM342.802 117.473V129.784H351.625C352.41 129.794 353.188 129.637 353.907 129.324C354.627 129.011 355.272 128.549 355.799 127.968C356.36 127.39 356.8 126.707 357.096 125.958C357.391 125.21 357.536 124.41 357.522 123.605C357.537 122.804 357.393 122.007 357.097 121.262C356.802 120.517 356.36 119.838 355.799 119.266C355.268 118.691 354.622 118.234 353.903 117.925C353.184 117.616 352.408 117.462 351.625 117.473H342.802Z" fill="white"/>
<path d="M382.62 147C380.003 147.003 377.42 146.406 375.07 145.255C372.72 144.104 370.664 142.43 369.062 140.362C367.46 138.293 366.353 135.885 365.826 133.322C365.3 130.759 365.368 128.109 366.026 125.577C366.683 123.044 367.913 120.696 369.619 118.712C371.326 116.729 373.465 115.163 375.871 114.134C378.277 113.106 380.887 112.643 383.501 112.78C386.114 112.917 388.661 113.652 390.947 114.927C393.412 116.307 395.457 118.328 396.868 120.775L393.046 122.992C392.093 121.158 390.626 119.642 388.824 118.629C386.939 117.541 384.796 116.979 382.62 117.002C380.897 116.938 379.179 117.232 377.576 117.866C375.972 118.499 374.517 119.457 373.303 120.681C370.983 123.173 369.694 126.451 369.694 129.855C369.694 133.259 370.983 136.537 373.303 139.028C374.517 140.252 375.972 141.21 377.576 141.843C379.18 142.476 380.897 142.771 382.62 142.707C384.796 142.73 386.939 142.168 388.824 141.08C390.616 140.076 392.082 138.578 393.046 136.764L396.868 138.934C395.476 141.394 393.436 143.425 390.97 144.806C388.431 146.266 385.549 147.023 382.62 147V147Z" fill="white"/>
<path d="M422.25 113.37H426.59V146.387H422.25V131.529H406.209V146.387H401.822V113.37H406.209V127.379H422.25V113.37Z" fill="white"/>
</g>
<defs>
<clipPath id="clip0">
<rect width="427" height="147" fill="white"/>
</clipPath>
</defs>
</svg>
